<?xml version="1.0" encoding="UTF-8" standalone="no"?>
<svg
   xmlns:dc="http://purl.org/dc/elements/1.1/"
   xmlns:cc="http://creativecommons.org/ns#"
   xmlns:rdf="http://www.w3.org/1999/02/22-rdf-syntax-ns#"
   xmlns:svg="http://www.w3.org/2000/svg"
   xmlns="http://www.w3.org/2000/svg"
   xmlns:sodipodi="http://sodipodi.sourceforge.net/DTD/sodipodi-0.dtd"
   xmlns:inkscape="http://www.inkscape.org/namespaces/inkscape"
   height="439"
   id="svg2"
   version="1.0"
   width="361"
   inkscape:version="0.91 r13725"
   sodipodi:docname="bus.svg">
  <metadata
     id="metadata9">
    <rdf:RDF>
      <cc:Work
         rdf:about="">
        <dc:format>image/svg+xml</dc:format>
        <dc:type
           rdf:resource="http://purl.org/dc/dcmitype/StillImage" />
        <dc:title></dc:title>
      </cc:Work>
    </rdf:RDF>
  </metadata>
  <sodipodi:namedview
     pagecolor="#ffffff"
     bordercolor="#666666"
     borderopacity="1"
     objecttolerance="10"
     gridtolerance="10"
     guidetolerance="10"
     inkscape:pageopacity="0"
     inkscape:pageshadow="2"
     inkscape:window-width="1301"
     inkscape:window-height="744"
     id="namedview7"
     showgrid="false"
     inkscape:zoom="0.76026056"
     inkscape:cx="203.25852"
     inkscape:cy="154.71837"
     inkscape:window-x="65"
     inkscape:window-y="24"
     inkscape:window-maximized="1"
     inkscape:current-layer="svg2" />
  <defs
     id="defs5" />
  <path
     style="fill:#ff9900;fill-opacity:1;stroke:#808080;stroke-width:0;stroke-miterlimit:4.69999981;stroke-dasharray:none;stroke-opacity:1"
     d="m 50.271756,434.94319 c -4.249689,-1.85649 -8.609998,-5.89741 -11.280428,-10.45416 -2.243174,-3.82769 -2.473744,-5.33418 -3.365828,-21.99149 -0.611385,-11.41599 -1.363396,-18.32257 -2.079656,-19.09982 -0.777576,-0.8438 -5.351487,-1.3889 -14.900998,-1.77582 l -13.7790296,-0.5583 0.640399,-94.02291 0.640399,-94.02292 6.5198926,-48.36441 C 24.324665,58.173424 24.552749,57.02001 31.920105,47.288382 37.701842,39.651215 43.258019,35.542971 56.78235,28.905205 70.06115,22.387946 83.10179,18.10083 103.28658,13.616913 c 33.813,-7.5113275 52.08737,-9.3411245 86.76289,-8.6874885 18.87042,0.355709 27.97946,0.949329 37.86848,2.467821 39.73019,6.1007075 70.71545,15.0002065 88.35805,25.3779605 7.78327,4.578282 17.77973,14.445654 20.73352,20.465772 3.61711,7.372035 5.6137,19.70811 15.98457,98.762002 l 5.60077,42.69283 0,93.19405 0,93.19404 -13.12368,0.51953 c -7.21801,0.28574 -13.53788,0.93375 -14.04415,1.44001 -0.50626,0.50626 -1.31274,7.76364 -1.79218,16.12749 -0.47943,8.36386 -1.3129,17.44543 -1.85217,20.18125 -2.65423,13.46549 -20.25067,21.09231 -33.82871,14.66236 -5.27531,-2.49814 -10.08047,-7.14993 -11.63728,-11.26583 -0.58048,-1.53464 -1.45741,-10.74248 -1.94874,-20.46186 -0.6984,-13.81518 -1.19658,-17.90108 -2.28281,-18.72314 -3.13173,-2.37006 -189.25717,-2.47581 -191.62077,-0.10888 -0.38433,0.38487 -1.19288,9.02997 -1.79678,19.21133 -1.02822,17.33512 -1.25489,18.77927 -3.56671,22.72409 -2.91643,4.97652 -6.59046,7.79962 -12.44261,9.56086 -5.3331,1.60503 -14.703571,1.601 -18.386514,-0.008 l 0,4.5e-4 z M 70.06593,324.11431 C 78.68709,320.52284 85.17595,310.4866 85.07009,300.90761 84.90529,285.9958 74.47803,275.76 59.6001,275.90529 c -7.640835,0.0746 -12.131525,2.00389 -17.421172,7.48442 -4.802655,4.97596 -6.323486,9.18911 -6.323486,17.5179 0,11.23401 4.041033,17.95403 13.486229,22.42684 5.60425,2.65391 15.345739,3.02049 20.724259,0.77986 z m 244.81494,-0.49268 c 5.13386,-2.3212 9.74352,-6.61981 12.38903,-11.55301 1.56378,-2.91605 1.99509,-5.32892 1.99509,-11.16101 0,-5.8321 -0.43131,-8.24497 -1.99509,-11.16102 -9.45546,-17.63204 -34.73159,-18.53482 -44.68873,-1.59613 -2.28397,3.88538 -2.57417,5.28935 -2.54076,12.2921 0.0321,6.72712 0.41138,8.62509 2.54417,12.73099 2.73625,5.26762 7.09823,9.11586 12.5301,11.0543 5.36191,1.91348 14.83598,1.62291 19.76619,-0.60622 z m 8.0051,-111.25558 c 4.90842,-2.62616 6.45274,-6.2451 6.27203,-14.69786 -0.22743,-10.63785 -11.94112,-93.2655 -14.75123,-104.054237 -1.76916,-6.79227 -4.40356,-10.576559 -8.73249,-12.544117 C 302.63834,79.68996 291.13979,79.521932 182.86471,79.275227 97.19122,79.080019 62.70281,79.293767 60.92303,80.030976 56.1918,81.990716 51.848,87.515443 50.334089,93.498693 47.230808,105.76341 36.000679,187.56251 35.664157,200.35296 c -0.25009,9.50541 3.898607,12.86834 16.884207,13.68632 4.886426,0.30779 66.851936,0.51706 137.701146,0.46504 l 128.81674,-0.0946 3.81972,-2.04367 z M 251.57541,58.033641 c 9.05425,-0.509122 9.88201,-0.721588 12.32363,-3.163208 2.23197,-2.231975 2.61742,-3.366801 2.61742,-7.706077 0,-4.27234 -0.41194,-5.529641 -2.56796,-7.837665 l -2.56796,-2.749015 -43.37672,-0.488214 c -23.8572,-0.268517 -59.41844,-0.268792 -79.02499,-6.1e-4 l -35.64827,0.487602 -2.57972,2.57972 c -4.43605,4.436062 -3.13203,13.99669 2.41157,17.680619 1.43711,0.955016 6.60124,1.472236 18.72587,1.875509 19.22247,0.639354 115.17754,0.137215 129.68713,-0.678661 z"
     id="path4141"
     inkscape:connector-curvature="0" />
</svg>
