<?xml version="1.0" encoding="UTF-8" standalone="no"?>
<svg
   xmlns:dc="http://purl.org/dc/elements/1.1/"
   xmlns:cc="http://creativecommons.org/ns#"
   xmlns:rdf="http://www.w3.org/1999/02/22-rdf-syntax-ns#"
   xmlns:svg="http://www.w3.org/2000/svg"
   xmlns="http://www.w3.org/2000/svg"
   xmlns:sodipodi="http://sodipodi.sourceforge.net/DTD/sodipodi-0.dtd"
   xmlns:inkscape="http://www.inkscape.org/namespaces/inkscape"
   height="256"
   id="svg2"
   version="1.0"
   width="256"
   inkscape:version="0.48.4 r9939"
   sodipodi:docname="smtuc-logo.svg">
  <metadata
     id="metadata9">
    <rdf:RDF>
      <cc:Work
         rdf:about="">
        <dc:format>image/svg+xml</dc:format>
        <dc:type
           rdf:resource="http://purl.org/dc/dcmitype/StillImage" />
        <dc:title />
      </cc:Work>
    </rdf:RDF>
  </metadata>
  <sodipodi:namedview
     pagecolor="#000000"
     bordercolor="#666666"
     borderopacity="1"
     objecttolerance="10"
     gridtolerance="10"
     guidetolerance="10"
     inkscape:pageopacity="0.44705882"
     inkscape:pageshadow="2"
     inkscape:window-width="1680"
     inkscape:window-height="993"
     id="namedview7"
     showgrid="false"
     inkscape:zoom="2.8284271"
     inkscape:cx="132.60645"
     inkscape:cy="133.33897"
     inkscape:window-x="1678"
     inkscape:window-y="-3"
     inkscape:window-maximized="1"
     inkscape:current-layer="svg2"
     inkscape:object-paths="true"
     showguides="true"
     inkscape:guide-bbox="true">
    <sodipodi:guide
       orientation="0,1"
       position="142.71423,92.731366"
       id="guide4144" />
    <sodipodi:guide
       orientation="0,1"
       position="185.1339,69.712942"
       id="guide4146" />
    <inkscape:grid
       empspacing="5"
       visible="true"
       enabled="true"
       snapvisiblegridlinesonly="true"
       type="xygrid"
       id="grid5458" />
    <sodipodi:guide
       orientation="0,1"
       position="-10,180"
       id="guide5471" />
    <sodipodi:guide
       orientation="1,0"
       position="180,150"
       id="guide5473" />
    <sodipodi:guide
       orientation="1,0"
       position="128,350.92578"
       id="guide3815" />
    <sodipodi:guide
       orientation="0,1"
       position="-66.5,128"
       id="guide3817" />
  </sodipodi:namedview>
  <defs
     id="defs5">
    <filter
       inkscape:collect="always"
       id="filter3857">
      <feGaussianBlur
         inkscape:collect="always"
         stdDeviation="1.7995313"
         id="feGaussianBlur3859" />
    </filter>
  </defs>
  <g
     transform="matrix(0.68628983,0,0,0.68628983,4.5000004,77.874143)"
     id="g3847"
     style="opacity:0.10000000000000001;fill:#000000;fill-opacity:1;filter:url(#filter3857)">
    <path
       style="fill:#000000;fill-opacity:1;stroke:none"
       d="M 179.96875,-104 C 80.583899,-104 0,-23.416101 0,75.96875 0,122.33342 17.540492,164.59909 46.34375,196.5 l 43.875,0 C 53.550808,169.14519 29.8125,125.41817 29.8125,76.15625 c 0,-82.846393 67.153607,-150 150,-150 0.0626,0 0.1249,-7.7e-5 0.1875,0 l 99.6875,0 C 251.14337,-92.889031 216.8584,-104 179.96875,-104 z m 89.4375,59.84375 c 36.66794,27.345852 60.40625,71.05058 60.40625,120.3125 0,82.78377 -67.05246,149.92979 -149.8125,150.03125 -0.0626,8e-5 -0.12488,0 -0.1875,0 l -98.9375,0 c 28.42132,18.77961 62.47976,29.71875 99.09375,29.71875 99.38485,0 179.9375,-80.55265 179.9375,-179.9375 0,-46.16458 -17.39395,-88.265582 -45.96875,-120.125 l -44.53125,0 z"
       id="path3849"
       inkscape:connector-curvature="0" />
    <path
       style="fill:#000000;fill-opacity:1;stroke:#808080;stroke-width:0;stroke-miterlimit:4.69999981;stroke-opacity:1;stroke-dasharray:none"
       d="m 109.36821,191.00437 c -2.27749,-0.99494 -4.61425,-3.16054 -6.04539,-5.60259 -1.20215,-2.05133 -1.32572,-2.85868 -1.80381,-11.78565 -0.32765,-6.11804 -0.73066,-9.8194 -1.11452,-10.23594 -0.416717,-0.45221 -2.867981,-0.74434 -7.985741,-0.9517 l -7.38443,-0.29921 0.3432,-50.38861 0.3432,-50.38864 3.49413,-25.91938 c 6.24782,-46.346227 6.37006,-46.964357 10.318374,-52.179727 3.098537,-4.09288 6.076197,-6.29457 13.324147,-9.85188 7.11634,-3.49271 14.10506,-5.79026 24.92247,-8.19328 18.12102,-4.025465 27.91459,-5.006102 46.49785,-4.655791 10.113,0.190622 14.99471,0.508753 20.29442,1.322546 21.29216,3.269495 37.89772,8.038895 47.35272,13.600545 4.1712,2.45358 9.5285,7.74168 11.11148,10.96798 1.93848,3.95081 3.00849,10.561957 8.56644,52.928397 l 3.00154,22.87989 0,49.94442 0,49.94441 -7.03322,0.27843 c -3.86827,0.15314 -7.2552,0.50042 -7.52651,0.77173 -0.27131,0.27131 -0.70352,4.16068 -0.96046,8.64302 -0.25694,4.48235 -0.70361,9.34933 -0.99262,10.81551 -1.42245,7.2164 -10.85271,11.30377 -18.12944,7.85783 -2.82713,-1.3388 -5.40232,-3.83178 -6.23663,-6.03756 -0.3111,-0.82245 -0.78105,-5.7571 -1.04436,-10.96589 -0.37429,-7.40382 -0.64128,-9.59353 -1.2234,-10.0341 -1.67836,-1.27015 -101.42645,-1.32682 -102.69314,-0.0584 -0.20598,0.20626 -0.63929,4.83934 -0.96294,10.29571 -0.55103,9.29022 -0.67251,10.06417 -1.91145,12.17827 -1.56297,2.66701 -3.53196,4.17996 -6.66823,5.12384 -2.85811,0.86017 -7.87993,0.85801 -9.85368,-0.003 l 0,2.5e-4 z m 10.60807,-59.39526 c 4.62024,-1.92474 8.09774,-7.30335 8.04101,-12.43691 -0.0883,-7.99152 -5.67648,-13.47707 -13.64985,-13.3992 -4.09485,0.0399 -6.5015,1.07391 -9.33633,4.01104 -2.57383,2.6667 -3.38886,4.92461 -3.38886,9.38816 0,6.02051 2.16566,9.6219 7.22751,12.01896 3.00342,1.42229 8.22407,1.61874 11.10652,0.41795 z m 131.20088,-0.26403 c 2.75132,-1.24399 5.22173,-3.5477 6.63951,-6.19149 0.83806,-1.56276 1.06921,-2.85586 1.06921,-5.98139 0,-3.12553 -0.23115,-4.41863 -1.06921,-5.9814 -5.06736,-9.44933 -18.61331,-9.93316 -23.94953,-0.85538 -1.22402,2.08224 -1.37953,2.83465 -1.36163,6.58756 0.0172,3.60518 0.22047,4.62234 1.36347,6.82277 1.46641,2.82302 3.80407,4.88536 6.71511,5.92421 2.87355,1.02546 7.95088,0.86973 10.59307,-0.32488 z m 4.29008,-59.62395 c 2.63051,-1.4074 3.45814,-3.34686 3.3613,-7.87686 -0.12189,-5.70102 -6.39947,-49.98272 -7.90547,-55.76461 -0.94812,-3.6401 -2.35994,-5.66817 -4.67989,-6.72261 -1.62703,-0.73951 -7.78931,-0.82955 -65.81594,-0.96177 -45.91401,-0.10463 -64.39699,0.0105 -65.35081,0.40502 -2.53555,1.05027 -4.86348,4.01105 -5.67481,7.2176 -1.66311,6.57289 -7.68154,50.41056 -7.86188,57.2652 -0.13404,5.09412 2.08933,6.89638 9.04856,7.33476 2.61872,0.16493 35.82719,0.27709 73.79659,0.24922 l 69.03529,-0.0506 2.04706,-1.09524 z m -38.21665,-82.709607 c 4.85233,-0.27285 5.29595,-0.38672 6.60445,-1.69523 1.19616,-1.19615 1.40273,-1.80433 1.40273,-4.12982 0,-2.28964 -0.22076,-2.96344 -1.37621,-4.20036 l -1.37622,-1.47326 -23.2464,-0.26162 c -12.78551,-0.14391 -31.84344,-0.14406 -42.35096,-3.4e-4 l -19.10456,0.26131 -1.38253,1.38253 c -2.37736,2.37738 -1.67851,7.50108 1.2924,9.47537 0.77019,0.51181 3.53773,0.789 10.03554,1.00512 10.30168,0.34264 61.7258,0.0736 69.50176,-0.3637 z"
       id="path3851"
       inkscape:connector-curvature="0" />
  </g>
  <g
     id="g3782"
     transform="matrix(0.68628983,0,0,0.68628983,4.5000004,75.874143)">
    <path
       inkscape:connector-curvature="0"
       id="path5475"
       d="M 179.96875,-104 C 80.583899,-104 0,-23.416101 0,75.96875 0,122.33342 17.540492,164.59909 46.34375,196.5 l 43.875,0 C 53.550808,169.14519 29.8125,125.41817 29.8125,76.15625 c 0,-82.846393 67.153607,-150 150,-150 0.0626,0 0.1249,-7.7e-5 0.1875,0 l 99.6875,0 C 251.14337,-92.889031 216.8584,-104 179.96875,-104 z m 89.4375,59.84375 c 36.66794,27.345852 60.40625,71.05058 60.40625,120.3125 0,82.78377 -67.05246,149.92979 -149.8125,150.03125 -0.0626,8e-5 -0.12488,0 -0.1875,0 l -98.9375,0 c 28.42132,18.77961 62.47976,29.71875 99.09375,29.71875 99.38485,0 179.9375,-80.55265 179.9375,-179.9375 0,-46.16458 -17.39395,-88.265582 -45.96875,-120.125 l -44.53125,0 z"
       style="fill:#ff9900;fill-opacity:1;stroke:none" />
    <path
       inkscape:connector-curvature="0"
       id="path4141"
       d="m 109.36821,191.00437 c -2.27749,-0.99494 -4.61425,-3.16054 -6.04539,-5.60259 -1.20215,-2.05133 -1.32572,-2.85868 -1.80381,-11.78565 -0.32765,-6.11804 -0.73066,-9.8194 -1.11452,-10.23594 -0.416717,-0.45221 -2.867981,-0.74434 -7.985741,-0.9517 l -7.38443,-0.29921 0.3432,-50.38861 0.3432,-50.38864 3.49413,-25.91938 c 6.24782,-46.346227 6.37006,-46.964357 10.318374,-52.179727 3.098537,-4.09288 6.076197,-6.29457 13.324147,-9.85188 7.11634,-3.49271 14.10506,-5.79026 24.92247,-8.19328 18.12102,-4.025465 27.91459,-5.006102 46.49785,-4.655791 10.113,0.190622 14.99471,0.508753 20.29442,1.322546 21.29216,3.269495 37.89772,8.038895 47.35272,13.600545 4.1712,2.45358 9.5285,7.74168 11.11148,10.96798 1.93848,3.95081 3.00849,10.561957 8.56644,52.928397 l 3.00154,22.87989 0,49.94442 0,49.94441 -7.03322,0.27843 c -3.86827,0.15314 -7.2552,0.50042 -7.52651,0.77173 -0.27131,0.27131 -0.70352,4.16068 -0.96046,8.64302 -0.25694,4.48235 -0.70361,9.34933 -0.99262,10.81551 -1.42245,7.2164 -10.85271,11.30377 -18.12944,7.85783 -2.82713,-1.3388 -5.40232,-3.83178 -6.23663,-6.03756 -0.3111,-0.82245 -0.78105,-5.7571 -1.04436,-10.96589 -0.37429,-7.40382 -0.64128,-9.59353 -1.2234,-10.0341 -1.67836,-1.27015 -101.42645,-1.32682 -102.69314,-0.0584 -0.20598,0.20626 -0.63929,4.83934 -0.96294,10.29571 -0.55103,9.29022 -0.67251,10.06417 -1.91145,12.17827 -1.56297,2.66701 -3.53196,4.17996 -6.66823,5.12384 -2.85811,0.86017 -7.87993,0.85801 -9.85368,-0.003 l 0,2.5e-4 z m 10.60807,-59.39526 c 4.62024,-1.92474 8.09774,-7.30335 8.04101,-12.43691 -0.0883,-7.99152 -5.67648,-13.47707 -13.64985,-13.3992 -4.09485,0.0399 -6.5015,1.07391 -9.33633,4.01104 -2.57383,2.6667 -3.38886,4.92461 -3.38886,9.38816 0,6.02051 2.16566,9.6219 7.22751,12.01896 3.00342,1.42229 8.22407,1.61874 11.10652,0.41795 z m 131.20088,-0.26403 c 2.75132,-1.24399 5.22173,-3.5477 6.63951,-6.19149 0.83806,-1.56276 1.06921,-2.85586 1.06921,-5.98139 0,-3.12553 -0.23115,-4.41863 -1.06921,-5.9814 -5.06736,-9.44933 -18.61331,-9.93316 -23.94953,-0.85538 -1.22402,2.08224 -1.37953,2.83465 -1.36163,6.58756 0.0172,3.60518 0.22047,4.62234 1.36347,6.82277 1.46641,2.82302 3.80407,4.88536 6.71511,5.92421 2.87355,1.02546 7.95088,0.86973 10.59307,-0.32488 z m 4.29008,-59.62395 c 2.63051,-1.4074 3.45814,-3.34686 3.3613,-7.87686 -0.12189,-5.70102 -6.39947,-49.98272 -7.90547,-55.76461 -0.94812,-3.6401 -2.35994,-5.66817 -4.67989,-6.72261 -1.62703,-0.73951 -7.78931,-0.82955 -65.81594,-0.96177 -45.91401,-0.10463 -64.39699,0.0105 -65.35081,0.40502 -2.53555,1.05027 -4.86348,4.01105 -5.67481,7.2176 -1.66311,6.57289 -7.68154,50.41056 -7.86188,57.2652 -0.13404,5.09412 2.08933,6.89638 9.04856,7.33476 2.61872,0.16493 35.82719,0.27709 73.79659,0.24922 l 69.03529,-0.0506 2.04706,-1.09524 z m -38.21665,-82.709607 c 4.85233,-0.27285 5.29595,-0.38672 6.60445,-1.69523 1.19616,-1.19615 1.40273,-1.80433 1.40273,-4.12982 0,-2.28964 -0.22076,-2.96344 -1.37621,-4.20036 l -1.37622,-1.47326 -23.2464,-0.26162 c -12.78551,-0.14391 -31.84344,-0.14406 -42.35096,-3.4e-4 l -19.10456,0.26131 -1.38253,1.38253 c -2.37736,2.37738 -1.67851,7.50108 1.2924,9.47537 0.77019,0.51181 3.53773,0.789 10.03554,1.00512 10.30168,0.34264 61.7258,0.0736 69.50176,-0.3637 z"
       style="fill:#ff9900;fill-opacity:1;stroke:#808080;stroke-width:0;stroke-miterlimit:4.69999981;stroke-opacity:1;stroke-dasharray:none" />
  </g>
</svg>
